<?xml version="1.0" encoding="utf-8"?>
<!-- Generator: Adobe Illustrator 15.0.0, SVG Export Plug-In . SVG Version: 6.00 Build 0)  -->
<!DOCTYPE svg PUBLIC "-//W3C//DTD SVG 1.1//EN" "http://www.w3.org/Graphics/SVG/1.1/DTD/svg11.dtd">
<svg version="1.1" id="Layer_1" xmlns="http://www.w3.org/2000/svg" xmlns:xlink="http://www.w3.org/1999/xlink" x="0px" y="0px"
	 width="149.375px" height="75px" viewBox="0 0 149.375 75" enable-background="new 0 0 149.375 75" xml:space="preserve">
<g>
	<path fill="#DAB08F" d="M0,0h9.685v64.317h12.822v10.129H0V0z"/>
	<path fill="#DAB08F" d="M52.184,0v59.151c0,0,0.088,16.104-12.912,16.104c-13.001,0-12.912-16.104-12.912-16.104V0h9.683v59.151
		c0,0-0.179,5.47,3.229,5.47c3.408,0,3.228-5.47,3.228-5.47V0H52.184z"/>
	<path fill="#DAB08F" d="M76.571,74.446l-5.021-31.399h-2.601v31.399h-9.684V0h9.684c11.477,0,16.5,7.496,16.5,21.472
		c0,7.395-1.704,14.08-5.381,16.916l6.187,36.058L76.571,74.446L76.571,74.446z M68.948,10.838v22.081
		c2.69,0,7.174-0.405,7.174-11.041C76.123,11.241,71.639,10.838,68.948,10.838z"/>
	<path fill="#DAB08F" d="M88.941,74.446L98.894,0h11.837l9.952,74.446h-9.416l-1.793-15.194h-9.324l-1.793,15.194H88.941z
		 M105.351,24.207l-0.27-1.924h-0.538l-0.27,1.924l-2.78,23.499h6.637L105.351,24.207z"/>
	<path fill="#DAB08F" d="M134.311,23.802l0.269,0.708h0.179l0.269-0.708L139.87,0h9.505l-9.863,42.743v31.704h-9.686V42.743
		L119.963,0h9.505L134.311,23.802z"/>
</g>
</svg>
