<svg width="75" height="17" viewBox="0 0 75 17" fill="none" xmlns="http://www.w3.org/2000/svg">
<g clip-path="url(#clip0)">
<path d="M20.7486 4.51191H18.4863V0.884521H19.0494V3.9942H20.7486V4.51191Z" fill="black"/>
<path d="M21.3984 0.964888C21.3984 0.776506 21.5466 0.632812 21.7477 0.632812C21.9488 0.632812 22.0973 0.776506 22.0973 0.964888C22.0973 1.15052 21.9488 1.29421 21.7477 1.29421C21.5466 1.29421 21.3984 1.15052 21.3984 0.964888ZM21.4789 1.77411H22.0169V4.51184H21.4789V1.77411Z" fill="black"/>
<path d="M23.8876 1.72119C24.5037 1.72119 24.9059 2.00789 24.9585 2.49053H24.4408C24.3906 2.28978 24.1943 2.16121 23.8876 2.16121C23.5862 2.16121 23.3572 2.3049 23.3572 2.51803C23.3572 2.68167 23.4954 2.78479 23.7921 2.85286L24.2472 2.95805C24.7677 3.07906 25.0114 3.3025 25.0114 3.7047C25.0114 4.22035 24.5312 4.5648 23.8777 4.5648C23.2266 4.5648 22.8017 4.27054 22.7539 3.78515H23.2943C23.3624 3.99622 23.5635 4.12685 23.89 4.12685C24.2269 4.12685 24.4658 3.97628 24.4658 3.75764C24.4658 3.59401 24.3376 3.48882 24.0636 3.42351L23.5862 3.31281C23.0657 3.18975 22.8244 2.95599 22.8244 2.54829C22.8244 2.06358 23.2692 1.72119 23.8876 1.72119Z" fill="black"/>
<path d="M26.4463 1.09277V1.78649H27.0393V2.24163H26.4463V3.64968C26.4463 3.93569 26.5642 4.06151 26.8334 4.06151C26.9162 4.06151 26.964 4.0567 27.0393 4.04914V4.49878C26.9513 4.5139 26.8509 4.52697 26.7454 4.52697C26.1445 4.52697 25.9056 4.3159 25.9056 3.78788V2.24163H25.4707V1.78649H25.9056V1.09277H26.4463Z" fill="black"/>
<path d="M30.0331 3.77277C29.9097 4.26298 29.4724 4.5648 28.8464 4.5648C28.0623 4.5648 27.582 4.02647 27.582 3.15193C27.582 2.27671 28.0722 1.72119 28.844 1.72119C29.6054 1.72119 30.0657 2.24165 30.0657 3.10174V3.29013H28.1324V3.32038C28.1499 3.80027 28.4291 4.10416 28.8615 4.10416C29.1884 4.10416 29.4119 3.98659 29.5126 3.77277H30.0331ZM28.1324 2.88999H29.515C29.5026 2.46028 29.241 2.18115 28.8412 2.18115C28.4418 2.18115 28.1626 2.46303 28.1324 2.88999Z" fill="black"/>
<path d="M30.7871 1.77413H31.3072V2.20934H31.3474C31.4808 1.90476 31.7524 1.72119 32.1646 1.72119C32.7754 1.72119 33.1123 2.08833 33.1123 2.73942V4.51186H32.5719V2.87555C32.5719 2.43553 32.3808 2.2169 31.981 2.2169C31.5815 2.2169 31.3275 2.48297 31.3275 2.91061V4.51186H30.7871V1.77413Z" fill="black"/>
<path d="M35.2891 3.14162C35.2891 2.25952 35.7817 1.72119 36.5809 1.72119C37.3781 1.72119 37.8707 2.25952 37.8707 3.14162C37.8707 4.02922 37.3805 4.5648 36.5809 4.5648C35.7793 4.5648 35.2891 4.02922 35.2891 3.14162ZM37.3152 3.14162C37.3152 2.54829 37.0488 2.20177 36.5809 2.20177C36.111 2.20177 35.847 2.54829 35.847 3.14162C35.847 3.73977 36.111 4.08422 36.5809 4.08422C37.0488 4.08422 37.3152 3.73771 37.3152 3.14162Z" fill="black"/>
<path d="M38.5918 1.77413H39.1119V2.20934H39.1521C39.2855 1.90476 39.5571 1.72119 39.9693 1.72119C40.5801 1.72119 40.917 2.08833 40.917 2.73942V4.51186H40.3766V2.87555C40.3766 2.43553 40.1855 2.2169 39.7857 2.2169C39.3862 2.2169 39.1322 2.48297 39.1322 2.91061V4.51186H38.5918V1.77413V1.77413Z" fill="black"/>
<path d="M22.851 12.2258H20.0149L19.3343 14.2368H18.1328L20.8193 6.79639H22.0672L24.7537 14.2368H23.5316L22.851 12.2258ZM20.3088 11.2976H22.557L21.4484 8.03393H21.4175L20.3088 11.2976Z" fill="black"/>
<path d="M30.5495 11.5245C30.5495 13.211 29.6471 14.2939 28.2858 14.2939C27.5123 14.2939 26.8987 13.9481 26.579 13.3451H26.5532V16.0313H25.4395V8.81224H26.5172V9.71496H26.5378C26.8472 9.13194 27.5072 8.75586 28.2652 8.75586C29.642 8.75586 30.5495 9.84353 30.5495 11.5245ZM29.4048 11.5245C29.4048 10.4265 28.8376 9.70465 27.9713 9.70465C27.1205 9.70465 26.5481 10.4417 26.5481 11.5245C26.5481 12.6177 27.1205 13.3499 27.9713 13.3499C28.8376 13.3499 29.4048 12.6335 29.4048 11.5245Z" fill="black"/>
<path d="M36.5163 11.5245C36.5163 13.211 35.6139 14.2939 34.2526 14.2939C33.4791 14.2939 32.8655 13.9481 32.5458 13.3451H32.52V16.0313H31.4062V8.81224H32.4839V9.71496H32.5046C32.814 9.13194 33.474 8.75586 34.232 8.75586C35.6088 8.75586 36.5163 9.84353 36.5163 11.5245ZM35.3716 11.5245C35.3716 10.4265 34.8043 9.70465 33.9381 9.70465C33.0873 9.70465 32.5149 10.4417 32.5149 11.5245C32.5149 12.6177 33.0873 13.3499 33.9381 13.3499C34.8043 13.3499 35.3716 12.6335 35.3716 11.5245Z" fill="black"/>
<path d="M37.4121 6.79639H38.5259V14.2368H37.4121V6.79639Z" fill="black"/>
<path d="M44.3212 12.6439C44.1717 13.6284 43.2126 14.3043 41.9853 14.3043C40.4075 14.3043 39.4277 13.2468 39.4277 11.5507C39.4277 9.84909 40.4126 8.74561 41.9389 8.74561C43.4395 8.74561 44.3831 9.7769 44.3831 11.4215V11.803H40.5518V11.8704C40.5518 12.7986 41.1345 13.407 42.0111 13.407C42.6299 13.407 43.1146 13.1128 43.2641 12.6439H44.3212V12.6439ZM40.557 11.0248H43.2693C43.2435 10.1942 42.7124 9.64764 41.9389 9.64764C41.1706 9.64764 40.6137 10.2045 40.557 11.0248Z" fill="black"/>
<path d="M53.9905 14.2368V8.76065H53.9548L51.7114 14.1804H50.8554L48.6072 8.76065H48.5714V14.2368H47.5195V6.79639H48.8547L51.2631 12.6692H51.3044L53.7073 6.79639H55.0479V14.2368H53.9905V14.2368Z" fill="black"/>
<path d="M60.9773 14.2368H59.9103V13.3039H59.8842C59.5748 13.9536 59.0337 14.2987 58.2032 14.2987C57.0227 14.2987 56.3008 13.5356 56.3008 12.2932V8.81226H57.4146V12.0766C57.4146 12.9017 57.8065 13.3396 58.5744 13.3396C59.3788 13.3396 59.8635 12.7827 59.8635 11.9371V8.81226H60.9773V14.2368V14.2368Z" fill="black"/>
<path d="M64.1449 8.75049C65.346 8.75049 66.2075 9.41601 66.2329 10.3751H65.1865C65.1397 9.89522 64.7327 9.60165 64.1139 9.60165C63.5103 9.60165 63.1081 9.88009 63.1081 10.3029C63.1081 10.6274 63.3762 10.844 63.9386 10.9836L64.851 11.1946C65.9441 11.458 66.3567 11.8602 66.3567 12.6543C66.3567 13.634 65.4285 14.3043 64.1036 14.3043C62.8248 14.3043 61.9634 13.6491 61.8809 12.6591H62.9843C63.062 13.1802 63.4794 13.4587 64.1552 13.4587C64.82 13.4587 65.238 13.185 65.238 12.7519C65.238 12.4171 65.0318 12.2362 64.4646 12.0919L63.4952 11.8547C62.5154 11.6175 62.0204 11.1176 62.0204 10.3648C62.0204 9.4057 62.8812 8.75049 64.1449 8.75049Z" fill="black"/>
<path d="M67.2246 7.38427C67.2246 7.02332 67.5134 6.74487 67.8688 6.74487C68.2298 6.74487 68.5185 7.02332 68.5185 7.38427C68.5185 7.73491 68.2298 8.01817 67.8688 8.01817C67.5134 8.01817 67.2246 7.73491 67.2246 7.38427ZM67.3119 8.81226H68.4257V14.2368H67.3119V8.81226Z" fill="black"/>
<path d="M73.2251 10.6789C73.1268 10.1069 72.6785 9.67858 71.9463 9.67858C71.0903 9.67858 70.5231 10.3957 70.5231 11.5246C70.5231 12.6796 71.0951 13.3761 71.9566 13.3761C72.6475 13.3761 73.1013 13.0303 73.2251 12.4012H74.2976C74.1739 13.5411 73.2608 14.3043 71.9463 14.3043C70.3993 14.3043 69.3887 13.2468 69.3887 11.5246C69.3887 9.83877 70.3993 8.74561 71.936 8.74561C73.3282 8.74561 74.1945 9.6222 74.2873 10.6789H73.2251V10.6789Z" fill="black"/>
<path d="M14.7673 2.00762C14.6209 1.63563 14.283 1.1119 13.8038 0.742915C13.5271 0.529868 13.1968 0.326188 12.7431 0.191734C12.2595 0.0484276 11.6638 0 10.9223 0H4.14299C3.40158 0 2.80588 0.0484276 2.32221 0.191734C1.86848 0.326188 1.53821 0.529868 1.26153 0.742915C0.782362 1.1119 0.4444 1.63563 0.298 2.00762C0.00300797 2.75707 0 3.60745 0 4.14295V10.9223C0 11.4578 0.00300797 12.3082 0.298 13.0577C0.4444 13.4297 0.782362 13.9534 1.26153 14.3224C1.53821 14.5354 1.86848 14.7391 2.32221 14.8736C2.80588 15.0169 3.40158 15.0653 4.14299 15.0653H10.9223C11.6638 15.0653 12.2595 15.0169 12.7431 14.8736C13.1968 14.7391 13.5271 14.5354 13.8038 14.3224C14.283 13.9534 14.6209 13.4297 14.7673 13.0577C15.0623 12.3082 15.0653 11.4578 15.0653 10.9223V4.14295C15.0653 3.60745 15.0623 2.75707 14.7673 2.00762ZM10.9902 10.3618C10.9512 10.5471 10.8802 10.7215 10.7707 10.8786C10.6616 11.0352 10.5216 11.1635 10.3585 11.2598C10.1934 11.3573 10.0202 11.4128 9.83528 11.4501C9.48812 11.5201 9.25054 11.5359 9.02739 11.491C8.81211 11.4477 8.62966 11.3487 8.48382 11.215C8.26763 11.0168 8.13288 10.749 8.10344 10.4691C8.06894 10.1411 8.17817 9.79072 8.42443 9.5326C8.5487 9.4024 8.70481 9.29935 8.91318 9.21848C9.13125 9.13387 9.37193 9.08334 9.74186 9.00874C9.83928 8.98911 9.93673 8.96947 10.0342 8.94979C10.1624 8.92401 10.2722 8.89118 10.3609 8.78289C10.4501 8.67379 10.4516 8.54307 10.4516 8.41146L10.4516 5.09143C10.4516 4.83752 10.3378 4.76834 10.0953 4.81492C9.92199 4.84874 6.19994 5.59939 6.19994 5.59939C5.98999 5.65009 5.91621 5.71872 5.91621 5.9792L5.91629 10.8439C5.91629 11.0346 5.90632 11.2038 5.86619 11.3949C5.82722 11.5803 5.75619 11.7547 5.6467 11.9118C5.53755 12.0684 5.3976 12.1967 5.23453 12.2929C5.06943 12.3904 4.89622 12.4487 4.71127 12.486C4.36412 12.556 4.12658 12.5718 3.90339 12.5269C3.68815 12.4837 3.5057 12.3819 3.35981 12.2482C3.14367 12.0499 3.01773 11.7821 2.98829 11.5023C2.95379 11.1743 3.05416 10.8239 3.30047 10.5658C3.42474 10.4355 3.58081 10.3325 3.78917 10.2517C4.00729 10.1671 4.24792 10.1165 4.61786 10.0419C4.71527 10.0223 4.81277 10.0026 4.91018 9.98297C5.03837 9.95714 5.14828 9.92436 5.23685 9.81607C5.32549 9.70779 5.33563 9.57797 5.33563 9.44721C5.33563 8.41781 5.33563 3.84478 5.33563 3.84478C5.33563 3.76928 5.34221 3.71904 5.34603 3.69378C5.36395 3.57587 5.41131 3.47472 5.49669 3.40304C5.56763 3.34344 5.65894 3.3024 5.77582 3.27752L5.77754 3.27718L10.2552 2.37377C10.2941 2.36586 10.6177 2.30841 10.6541 2.30523C10.8961 2.28435 11.032 2.44325 11.032 2.70116L11.0322 9.80812C11.0322 9.99887 11.0303 10.1707 10.9902 10.3618Z" fill="black"/>
</g>
<defs>
<clipPath id="clip0">
<rect width="75" height="16.7347" fill="white"/>
</clipPath>
</defs>
</svg>
