<?xml version="1.0" standalone="no"?>
<!DOCTYPE svg PUBLIC "-//W3C//DTD SVG 20010904//EN"
 "http://www.w3.org/TR/2001/REC-SVG-20010904/DTD/svg10.dtd">
<svg version="1.0" xmlns="http://www.w3.org/2000/svg"
 width="260.000000pt" height="260.000000pt" viewBox="0 0 260.000000 260.000000"
 preserveAspectRatio="xMidYMid meet">
<metadata>
Created by potrace 1.11, written by Peter Selinger 2001-2013
</metadata>
<g transform="translate(0.000000,260.000000) scale(0.100000,-0.100000)"
fill="#000000" stroke="none">
<path d="M1114 2365 c1 -67 21 -60 22 7 l1 53 -6 -55 -7 -55 -5 50 -6 50 1
-50z"/>
<path d="M1281 2368 c1 -29 4 -44 6 -33 3 11 10 23 17 27 8 6 7 8 -1 8 -7 0
-13 9 -13 19 0 11 6 22 13 24 7 3 5 6 -5 6 -15 1 -18 -7 -17 -51z"/>
<path d="M1466 2397 c-5 -15 -6 -31 -2 -34 11 -11 18 5 14 34 l-4 28 -8 -28z"/>
<path d="M1630 2376 c0 -9 5 -16 10 -16 6 0 10 4 10 9 0 6 -4 13 -10 16 -5 3
-10 -1 -10 -9z"/>
<path d="M1460 2344 c0 -3 7 -12 15 -20 16 -17 18 -14 9 10 -6 15 -24 23 -24
10z"/>
<path d="M1218 1878 c-20 -12 -44 -37 -53 -57 -10 -20 -29 -59 -43 -87 -13
-28 -22 -56 -18 -63 4 -6 2 -11 -3 -11 -6 0 -11 -8 -11 -18 0 -10 -6 -24 -12
-31 -7 -8 -8 -11 -2 -8 8 4 11 -12 12 -51 l1 -58 -32 4 c-30 3 -33 1 -32 -22
1 -13 7 -31 13 -39 7 -8 10 -17 7 -20 -3 -4 -2 -5 1 -2 8 5 65 -25 76 -40 4
-5 2 -15 -4 -22 -7 -9 -7 -13 0 -13 6 0 14 -9 17 -21 l7 -21 15 22 c8 12 21
19 29 16 7 -3 16 0 20 6 4 7 3 8 -4 4 -7 -4 -12 -2 -12 3 0 6 6 11 14 11 8 0
16 7 20 15 4 12 2 13 -13 6 -10 -6 -21 -7 -25 -4 -10 10 -7 33 5 33 5 0 7 -4
4 -10 -3 -5 -2 -10 3 -10 6 0 13 7 16 16 3 8 10 13 16 9 5 -3 5 6 -1 25 -12
33 -24 42 -14 10 8 -25 -1 -41 -20 -34 -10 4 -11 12 -6 27 5 12 6 28 3 36 -3
9 0 11 8 6 7 -4 5 3 -4 17 -9 14 -13 28 -10 31 11 11 10 137 -1 141 -5 2 0 12
12 23 13 11 29 35 37 54 35 82 102 118 147 79 l24 -21 -40 5 c-28 4 -35 2 -25
-4 11 -7 4 -10 -25 -11 -27 0 -34 -3 -22 -8 10 -4 19 -11 19 -16 0 -6 4 -16
10 -22 6 -7 7 -13 2 -13 -23 -1 25 -20 49 -20 24 0 27 -3 22 -20 -5 -15 -3
-18 9 -14 12 5 16 0 16 -19 0 -25 -55 -97 -74 -97 -17 -1 -86 -69 -86 -85 0
-7 5 -17 10 -20 6 -3 10 -11 10 -18 0 -6 -7 -2 -15 9 -8 10 -15 15 -15 9 0 -5
-5 -3 -11 5 -9 13 -10 13 -6 0 2 -8 10 -14 17 -12 8 2 11 -4 7 -17 -3 -15 -1
-18 11 -14 9 4 13 2 9 -4 -4 -6 0 -16 8 -23 10 -8 15 -9 15 -2 0 6 7 9 15 6
12 -5 13 -10 5 -20 -7 -7 -18 -10 -27 -7 -13 5 -13 3 -2 -15 9 -15 17 -18 25
-11 9 7 19 3 35 -13 12 -13 18 -17 14 -9 -6 11 1 13 34 9 l43 -4 -6 48 c-6 44
-4 48 18 54 14 3 27 12 30 20 4 11 2 12 -14 4 -16 -9 -19 -7 -18 18 0 15 -1
32 -2 37 -2 6 0 22 4 38 5 17 4 33 -4 42 -10 13 -9 15 11 15 21 1 22 2 7 11
-10 5 -18 15 -18 20 0 6 5 7 11 3 8 -4 8 0 0 15 -9 17 -9 21 2 21 22 0 41 -27
25 -33 -7 -3 -3 -4 9 -4 15 1 22 7 20 17 -1 8 4 14 12 12 12 -3 12 0 2 12 -8
10 -22 14 -36 10 -13 -3 -26 0 -30 6 -5 9 -1 10 16 6 21 -6 22 -6 5 5 -14 9
-15 13 -5 19 8 5 17 3 24 -7 7 -10 17 -13 25 -8 18 11 -15 35 -47 35 -13 0
-23 5 -23 10 0 6 -7 10 -15 10 -8 0 -15 6 -15 13 0 13 -64 86 -75 87 -3 0 -4
3 -3 8 2 7 -41 19 -77 21 -11 0 -37 -9 -57 -21z m237 -148 c3 -5 1 -10 -4 -10
-6 0 -11 5 -11 10 0 6 2 10 4 10 3 0 8 -4 11 -10z m-115 -295 c0 -1 -9 -5 -20
-8 -12 -3 -20 0 -20 8 0 8 8 11 20 8 11 -3 20 -7 20 -8z m-175 -65 c3 -5 1
-10 -5 -10 -6 0 -9 -4 -5 -9 3 -5 1 -12 -4 -15 -13 -9 -22 9 -15 28 7 18 20
21 29 6z"/>
<path d="M613 1715 c0 -8 4 -12 9 -9 4 3 8 9 8 15 0 5 -4 9 -8 9 -5 0 -9 -7
-9 -15z"/>
<path d="M1556 1685 c4 -8 8 -15 10 -15 2 0 4 7 4 15 0 8 -4 15 -10 15 -5 0
-7 -7 -4 -15z"/>
<path d="M610 1680 c-13 -8 -13 -10 2 -10 9 0 20 5 23 10 8 13 -5 13 -25 0z"/>
<path d="M617 1585 c-4 -8 -3 -16 1 -19 4 -3 9 4 9 15 2 23 -3 25 -10 4z"/>
<path d="M638 1553 c-10 -2 -18 -10 -18 -16 0 -7 -4 -6 -10 3 -5 8 -12 12 -15
9 -3 -4 0 -11 7 -17 10 -8 20 -6 38 8 14 11 23 19 20 19 -3 -1 -13 -3 -22 -6z"/>
<path d="M633 1494 c-22 -24 -22 -25 -2 -19 11 4 26 2 34 -5 10 -8 15 -8 21 1
4 7 3 9 -3 6 -6 -4 -16 -1 -22 7 -9 11 -9 15 1 18 7 3 8 7 2 10 -5 4 -19 -5
-31 -18z"/>
<path d="M639 1443 c-12 -16 -12 -17 2 -6 9 7 20 9 24 5 5 -4 5 -1 1 6 -9 16
-11 15 -27 -5z"/>
<path d="M682 1437 c-16 -37 -15 -41 4 -23 8 9 14 24 11 34 -3 13 -6 11 -15
-11z"/>
<path d="M597 1439 c7 -7 15 -10 18 -7 3 3 -2 9 -12 12 -14 6 -15 5 -6 -5z"/>
<path d="M911 1438 c-1 -26 14 -30 35 -7 16 18 16 19 1 13 -9 -3 -17 -11 -18
-18 0 -6 -4 -2 -9 9 -7 16 -9 17 -9 3z"/>
<path d="M2232 1406 c20 -19 34 -37 30 -40 -3 -4 1 -4 11 -1 12 5 14 11 7 23
-22 38 -38 52 -61 52 -23 0 -22 -2 13 -34z"/>
<path d="M807 1419 c7 -7 15 -10 18 -7 3 3 -2 9 -12 12 -14 6 -15 5 -6 -5z"/>
<path d="M1450 1420 c-13 -8 -12 -10 3 -10 9 0 17 5 17 10 0 12 -1 12 -20 0z"/>
<path d="M2119 1403 c-13 -16 -12 -17 4 -4 9 7 17 15 17 17 0 8 -8 3 -21 -13z"/>
<path d="M646 1395 c4 -8 8 -15 10 -15 2 0 4 7 4 15 0 8 -4 15 -10 15 -5 0 -7
-7 -4 -15z"/>
<path d="M745 1399 c-6 -8 -4 -10 5 -4 10 6 12 4 6 -11 -6 -15 -5 -17 5 -6 9
9 10 15 2 23 -8 8 -13 7 -18 -2z"/>
<path d="M879 1393 c-13 -16 -12 -17 4 -4 16 13 21 21 13 21 -2 0 -10 -8 -17
-17z"/>
<path d="M820 1383 c0 -12 3 -13 13 -4 8 6 16 10 18 8 2 -1 3 0 1 2 -7 12 -32
7 -32 -6z"/>
<path d="M1000 1396 c0 -2 8 -10 18 -17 15 -13 16 -12 3 4 -13 16 -21 21 -21
13z"/>
<path d="M690 1381 c0 -5 5 -13 10 -16 6 -3 10 -2 10 4 0 5 -4 13 -10 16 -5 3
-10 2 -10 -4z"/>
<path d="M786 1371 c-4 -5 -3 -17 1 -26 6 -16 1 -17 -43 -10 -27 4 -52 12 -56
18 -5 8 -8 7 -8 -4 0 -11 12 -18 38 -23 73 -12 83 -9 80 24 -2 32 -4 35 -12
21z"/>
<path d="M1085 1370 c-3 -5 -1 -10 4 -10 6 0 11 5 11 10 0 6 -2 10 -4 10 -3 0
-8 -4 -11 -10z"/>
<path d="M740 1350 c0 -5 5 -10 10 -10 6 0 10 5 10 10 0 6 -4 10 -10 10 -5 0
-10 -4 -10 -10z"/>
<path d="M860 1350 c0 -13 18 -22 24 -11 3 5 -1 11 -9 15 -8 3 -15 1 -15 -4z"/>
<path d="M900 1348 c0 -9 8 -22 18 -29 16 -13 16 -13 2 5 -8 11 -13 21 -12 23
2 3 1 7 -2 11 -3 3 -6 -2 -6 -10z"/>
<path d="M950 1350 c0 -5 5 -10 11 -10 5 0 7 5 4 10 -3 6 -8 10 -11 10 -2 0
-4 -4 -4 -10z"/>
<path d="M2042 1332 c-32 -27 -42 -52 -21 -52 5 0 8 4 4 9 -3 5 -1 12 4 15 17
11 24 -17 8 -29 -10 -7 -17 -18 -17 -24 0 -7 -4 -10 -9 -6 -10 6 -44 -35 -36
-44 3 -2 30 21 61 53 30 32 49 56 41 53 -7 -3 -14 1 -14 9 0 7 4 11 9 8 4 -3
8 4 8 15 0 26 2 26 -38 -7z"/>
<path d="M980 1336 c0 -8 4 -17 9 -20 5 -4 7 3 4 14 -6 23 -13 26 -13 6z"/>
<path d="M837 1325 c-5 -11 0 -15 16 -15 12 0 18 4 12 8 -5 4 -13 11 -16 15
-4 4 -9 1 -12 -8z"/>
<path d="M1220 1331 c0 -5 7 -12 16 -15 14 -5 15 -4 4 9 -14 17 -20 19 -20 6z"/>
<path d="M1266 1321 c-4 -5 3 -7 14 -4 23 6 26 13 6 13 -8 0 -17 -4 -20 -9z"/>
<path d="M1310 1320 c0 -5 7 -10 16 -10 8 0 12 5 9 10 -3 6 -10 10 -16 10 -5
0 -9 -4 -9 -10z"/>
<path d="M1460 1319 c0 -5 5 -7 10 -4 6 3 10 8 10 11 0 2 -4 4 -10 4 -5 0 -10
-5 -10 -11z"/>
<path d="M1620 1319 c0 -5 5 -7 10 -4 6 3 10 8 10 11 0 2 -4 4 -10 4 -5 0 -10
-5 -10 -11z"/>
<path d="M1160 1300 c0 -5 5 -10 11 -10 5 0 7 5 4 10 -3 6 -8 10 -11 10 -2 0
-4 -4 -4 -10z"/>
<path d="M930 1289 c0 -4 6 -9 13 -12 8 -3 14 0 14 7 0 7 -6 13 -14 13 -7 0
-13 -4 -13 -8z"/>
<path d="M1210 1290 c0 -5 5 -10 11 -10 5 0 7 5 4 10 -3 6 -8 10 -11 10 -2 0
-4 -4 -4 -10z"/>
<path d="M2114 1286 c-5 -12 -9 -14 -14 -6 -5 8 -13 9 -23 4 -13 -7 -13 -13
-4 -31 l12 -21 26 22 c18 16 24 28 18 37 -6 11 -9 10 -15 -5z"/>
<path d="M1250 1275 c0 -8 4 -15 10 -15 5 0 7 7 4 15 -4 8 -8 15 -10 15 -2 0
-4 -7 -4 -15z"/>
<path d="M1290 1279 c11 -8 12 -12 3 -16 -19 -7 -16 -20 5 -25 14 -4 18 1 17
22 0 19 -5 27 -20 28 -16 1 -17 -1 -5 -9z"/>
<path d="M1465 1280 c3 -5 8 -10 11 -10 2 0 4 5 4 10 0 6 -5 10 -11 10 -5 0
-7 -4 -4 -10z"/>
<path d="M1970 1264 c0 -22 -3 -24 -14 -15 -12 10 -14 9 -12 -6 2 -10 -1 -21
-6 -24 -5 -3 -6 -17 -3 -31 5 -20 11 -24 27 -20 14 3 19 1 14 -6 -10 -17 -4
-15 32 11 17 13 29 27 25 30 -3 4 -15 -3 -25 -15 -15 -18 -21 -20 -27 -9 -5 8
-13 11 -19 7 -21 -13 -24 16 -4 37 24 27 38 67 23 67 -6 0 -11 -12 -11 -26z"/>
<path d="M1400 1270 c0 -5 5 -10 11 -10 5 0 7 5 4 10 -3 6 -8 10 -11 10 -2 0
-4 -4 -4 -10z"/>
<path d="M1590 1271 c0 -6 4 -13 10 -16 6 -3 7 1 4 9 -7 18 -14 21 -14 7z"/>
<path d="M1125 1261 c-3 -5 -2 -12 3 -15 5 -3 9 1 9 9 0 17 -3 19 -12 6z"/>
<path d="M1356 1247 c3 -10 9 -15 12 -12 3 3 0 11 -7 18 -10 9 -11 8 -5 -6z"/>
<path d="M1555 1250 c-3 -4 1 -11 7 -13 8 -3 6 -6 -4 -6 -10 -1 -18 4 -18 10
0 8 -4 8 -13 1 -7 -6 -25 -9 -40 -8 -15 2 -27 -1 -27 -7 0 -5 8 -7 19 -4 14 3
19 -1 19 -19 0 -13 -4 -21 -9 -18 -5 3 -9 1 -9 -4 0 -20 28 -20 33 -1 3 10 1
19 -5 19 -5 0 -2 7 6 16 15 14 17 14 32 0 18 -19 34 -21 34 -5 0 8 4 9 13 0 8
-6 17 -8 20 -4 4 3 7 1 7 -5 0 -7 -7 -12 -17 -12 -14 0 -14 -2 3 -21 27 -30
51 -41 51 -24 0 7 -7 11 -15 7 -11 -4 -13 -1 -7 8 5 9 4 11 -3 6 -7 -4 -12 -3
-12 2 0 6 7 12 15 16 8 3 12 12 9 21 -3 8 -10 12 -15 9 -5 -3 -9 0 -9 6 0 6
-4 9 -10 5 -5 -3 -18 3 -29 14 -11 11 -23 16 -26 11z"/>
<path d="M1630 1252 c0 -13 50 -45 58 -38 3 3 1 6 -4 6 -6 0 -20 9 -32 20 -12
12 -22 17 -22 12z"/>
<path d="M991 1230 c16 -33 16 -33 23 -13 4 9 4 14 0 10 -4 -4 -13 1 -21 11
-12 15 -13 14 -2 -8z"/>
<path d="M1735 1235 c11 -9 19 -21 17 -26 -1 -6 2 -8 8 -4 13 8 4 22 -23 35
-22 11 -22 11 -2 -5z"/>
<path d="M1903 1238 c-23 -11 -30 -32 -14 -42 5 -3 0 -23 -10 -43 -18 -36 -18
-38 -2 -44 27 -10 37 1 16 16 -10 7 -14 17 -10 21 4 5 13 2 18 -6 9 -12 10
-12 5 3 -3 10 -1 27 4 38 8 15 7 21 -5 25 -8 3 -12 10 -9 15 3 5 9 7 14 4 4
-3 10 2 14 10 3 8 4 15 3 14 -1 0 -12 -5 -24 -11z"/>
<path d="M2041 1236 c-9 -10 -8 -15 2 -19 8 -3 13 3 13 14 0 23 0 23 -15 5z"/>
<path d="M1850 1213 c-8 -2 -22 -7 -30 -10 -8 -4 -19 -5 -24 -4 -5 1 -3 -6 5
-15 13 -16 12 -17 -8 -12 -16 4 -20 2 -16 -8 3 -9 -2 -14 -14 -14 -11 0 -20
-6 -20 -12 0 -7 -4 -21 -8 -30 -4 -11 -3 -18 5 -18 6 0 8 5 4 12 -5 8 -2 9 11
4 14 -5 16 -4 6 8 -9 11 -6 17 13 30 14 9 30 16 37 16 6 0 9 6 6 14 -7 17 17
28 30 15 7 -7 12 -3 16 10 3 12 4 21 4 20 -1 0 -9 -3 -17 -6z"/>
<path d="M1160 1201 c0 -6 4 -13 10 -16 6 -3 7 1 4 9 -7 18 -14 21 -14 7z"/>
<path d="M1336 1197 c3 -10 9 -15 12 -12 3 3 0 11 -7 18 -10 9 -11 8 -5 -6z"/>
<path d="M1692 1194 c-7 -8 -8 -14 -3 -14 10 0 25 19 20 25 -2 1 -10 -3 -17
-11z"/>
<path d="M1740 1180 c-9 -6 -10 -10 -3 -10 6 0 15 5 18 10 8 12 4 12 -15 0z"/>
<path d="M1834 1174 c4 -10 -1 -22 -11 -29 -16 -12 -15 -13 8 -12 24 2 25 4
17 30 -6 15 -12 27 -15 27 -3 0 -2 -7 1 -16z"/>
<path d="M1304 1166 c5 -14 2 -17 -9 -12 -22 8 -18 -7 5 -22 19 -11 20 -10 16
14 -3 15 -8 29 -12 33 -4 3 -4 -2 0 -13z"/>
<path d="M1455 1170 c3 -5 8 -10 11 -10 2 0 4 5 4 10 0 6 -5 10 -11 10 -5 0
-7 -4 -4 -10z"/>
<path d="M1090 1161 c0 -5 8 -11 18 -13 10 -3 19 0 19 6 0 7 -9 13 -19 13 -10
1 -18 -2 -18 -6z"/>
<path d="M1166 1157 c3 -10 9 -15 12 -12 3 3 0 11 -7 18 -10 9 -11 8 -5 -6z"/>
<path d="M1705 1149 c-10 -15 3 -25 16 -12 7 7 7 13 1 17 -6 3 -14 1 -17 -5z"/>
<path d="M1673 1135 c0 -8 6 -16 14 -19 15 -6 15 -4 7 18 -8 20 -21 21 -21 1z"/>
<path d="M1930 1140 c0 -5 5 -10 11 -10 5 0 7 5 4 10 -3 6 -8 10 -11 10 -2 0
-4 -4 -4 -10z"/>
<path d="M1010 1130 c0 -5 5 -10 11 -10 5 0 7 5 4 10 -3 6 -8 10 -11 10 -2 0
-4 -4 -4 -10z"/>
<path d="M1780 1110 c0 -11 -6 -20 -12 -21 -17 -1 42 -28 62 -28 8 -1 4 5 -10
12 -16 8 -25 21 -24 35 1 12 -3 22 -7 22 -5 0 -9 -9 -9 -20z"/>
<path d="M1020 1105 c0 -5 5 -17 10 -25 5 -8 10 -10 10 -5 0 6 -5 17 -10 25
-5 8 -10 11 -10 5z"/>
<path d="M1475 1099 c-4 -6 -5 -12 -2 -15 2 -3 7 2 10 11 7 17 1 20 -8 4z"/>
<path d="M1158 1087 c7 -8 8 -18 4 -22 -4 -5 -1 -5 6 -1 17 10 15 23 -4 30
-13 5 -14 4 -6 -7z"/>
<path d="M1285 1090 c3 -5 8 -10 11 -10 2 0 4 5 4 10 0 6 -5 10 -11 10 -5 0
-7 -4 -4 -10z"/>
<path d="M1830 1089 c0 -11 37 -12 43 -1 3 4 -6 8 -19 8 -13 1 -24 -2 -24 -7z"/>
<path d="M1070 1080 c0 -6 7 -10 15 -10 8 0 15 2 15 4 0 2 -7 6 -15 10 -8 3
-15 1 -15 -4z"/>
<path d="M1210 1080 c0 -5 5 -10 11 -10 5 0 7 5 4 10 -3 6 -8 10 -11 10 -2 0
-4 -4 -4 -10z"/>
<path d="M1118 1063 c-10 -3 -18 -9 -18 -15 0 -6 3 -8 7 -5 3 4 12 2 19 -4 8
-7 14 -7 19 1 10 15 -6 28 -27 23z"/>
<path d="M1247 1056 c-4 -10 -1 -13 8 -9 8 3 12 9 9 14 -7 12 -11 11 -17 -5z"/>
<path d="M1205 1040 c-3 -6 1 -7 9 -4 18 7 21 14 7 14 -6 0 -13 -4 -16 -10z"/>
<path d="M1304 1038 c-4 -5 -4 -11 -1 -14 6 -6 37 6 37 15 0 11 -30 9 -36 -1z"/>
<path d="M1030 1013 c0 -6 8 -17 18 -24 16 -13 16 -13 2 6 -8 11 -16 22 -17
24 -2 2 -3 0 -3 -6z"/>
<path d="M1150 1014 c0 -6 7 -19 16 -30 14 -18 14 -18 3 6 -14 31 -19 36 -19
24z"/>
<path d="M1278 983 c7 -3 16 -2 19 1 4 3 -2 6 -13 5 -11 0 -14 -3 -6 -6z"/>
<path d="M1032 930 c0 -19 2 -27 5 -17 2 9 2 25 0 35 -3 9 -5 1 -5 -18z"/>
<path d="M1118 953 c7 -3 16 -2 19 1 4 3 -2 6 -13 5 -11 0 -14 -3 -6 -6z"/>
<path d="M1300 920 c-8 -15 -8 -18 3 -14 8 3 14 11 14 19 0 20 -4 19 -17 -5z"/>
<path d="M1330 894 c0 -6 7 -19 16 -30 14 -18 14 -18 3 6 -14 31 -19 36 -19
24z"/>
<path d="M1066 879 c2 -4 13 -7 24 -6 23 2 17 10 -10 12 -10 1 -17 -2 -14 -6z"/>
<path d="M1105 850 c3 -6 10 -8 15 -5 4 3 11 -1 13 -7 4 -10 6 -10 6 0 1 8 6
10 14 6 6 -4 8 -3 4 1 -12 14 -60 18 -52 5z"/>
<path d="M1246 833 c-6 -14 -5 -15 5 -6 7 7 10 15 7 18 -3 3 -9 -2 -12 -12z"/>
<path d="M1440 832 c0 -5 7 -9 15 -9 8 0 12 4 9 9 -3 4 -9 8 -15 8 -5 0 -9 -4
-9 -8z"/>
<path d="M1280 818 c0 -6 3 -8 7 -5 3 4 11 2 18 -3 8 -7 12 -6 12 3 0 7 -9 14
-19 14 -10 1 -18 -3 -18 -9z"/>
<path d="M1022 800 c0 -14 2 -19 5 -12 2 6 2 18 0 25 -3 6 -5 1 -5 -13z"/>
<path d="M1160 781 c0 -6 4 -13 10 -16 6 -3 7 1 4 9 -7 18 -14 21 -14 7z"/>
<path d="M1215 750 c3 -5 8 -10 11 -10 2 0 4 5 4 10 0 6 -5 10 -11 10 -5 0 -7
-4 -4 -10z"/>
<path d="M1248 733 c7 -3 16 -2 19 1 4 3 -2 6 -13 5 -11 0 -14 -3 -6 -6z"/>
<path d="M1303 712 c0 -15 1 -19 4 -10 3 11 10 15 21 11 18 -6 17 -5 -8 14
-13 10 -16 8 -17 -15z"/>
<path d="M1435 730 c-3 -5 -1 -10 4 -10 6 0 11 5 11 10 0 6 -2 10 -4 10 -3 0
-8 -4 -11 -10z"/>
<path d="M1183 715 c0 -8 4 -12 9 -9 5 3 6 10 3 15 -9 13 -12 11 -12 -6z"/>
<path d="M1010 710 c0 -5 5 -10 11 -10 5 0 7 5 4 10 -3 6 -8 10 -11 10 -2 0
-4 -4 -4 -10z"/>
<path d="M1268 713 c7 -3 16 -2 19 1 4 3 -2 6 -13 5 -11 0 -14 -3 -6 -6z"/>
<path d="M1026 655 c-8 -21 -8 -158 0 -179 5 -14 37 -16 250 -16 l244 0 0 94
0 95 -36 -15 c-20 -8 -43 -13 -50 -10 -8 3 -14 2 -14 -3 0 -14 -56 -33 -86
-29 -18 2 -28 8 -26 16 1 8 -2 11 -8 7 -6 -3 -7 -11 -4 -17 5 -7 -10 -8 -47
-2 -30 5 -77 9 -106 9 -41 0 -53 4 -57 17 -2 10 -12 21 -23 25 -10 3 -21 11
-24 16 -3 5 -9 1 -13 -8z"/>
</g>
</svg>
